HIERARCHY
ROOT Hips
{
	OFFSET 0.000000 0.000000 0.000000
	CHANNELS 6 Xposition Yposition Zposition Xrotation Yrotation Zrotation
	JOINT LeftUpLeg_virtual
	{
		OFFSET 0.000000 0.000000 0.000000
		CHANNELS 3 Xrotation Yrotation Zrotation
		JOINT LeftUpLeg
		{
			OFFSET 15.427100 -6.655098 0.678600
			CHANNELS 3 Xrotation Yrotation Zrotation
			JOINT LeftLeg
			{
				OFFSET 4.081073 -39.591068 13.024000
				CHANNELS 3 Xrotation Yrotation Zrotation
				JOINT LeftFoot
				{
					OFFSET -4.081074 -37.707932 -15.979700
					CHANNELS 3 Xrotation Yrotation Zrotation
					JOINT LeftToeBase
					{
						OFFSET 5.346399 -15.068900 20.645000
						CHANNELS 3 Xrotation Yrotation Zrotation
						JOINT LeftToe_End
						{
							OFFSET 2.754700 0.931300 11.300900
							CHANNELS 3 Xrotation Yrotation Zrotation
							End Site
							{
								OFFSET 0 0 0
							}
						}
					}
				}
			}
		}
	}
	JOINT RightUpLeg_virtual
	{
		OFFSET 0.000000 0.000000 0.000000
		CHANNELS 3 Xrotation Yrotation Zrotation
		JOINT RightUpLeg
		{
			OFFSET -15.569500 -6.655098 0.678600
			CHANNELS 3 Xrotation Yrotation Zrotation
			JOINT RightLeg
			{
				OFFSET -4.081825 -39.591045 13.023800
				CHANNELS 3 Xrotation Yrotation Zrotation
				JOINT RightFoot
				{
					OFFSET 4.081824 -37.707954 -15.979600
					CHANNELS 3 Xrotation Yrotation Zrotation
					JOINT RightToeBase
					{
						OFFSET -5.346400 -15.068900 20.645000
						CHANNELS 3 Xrotation Yrotation Zrotation
						JOINT RightToe_End
						{
							OFFSET -2.754700 0.931300 11.300900
							CHANNELS 3 Xrotation Yrotation Zrotation
							End Site
							{
								OFFSET 0 0 0
							}
						}
					}
				}
			}
		}
	}
	JOINT Spine_virtual
	{
		OFFSET 0.000000 0.000000 0.000000
		CHANNELS 3 Xrotation Yrotation Zrotation
		JOINT Spine
		{
			OFFSET -0.279200 12.230698 -2.892100
			CHANNELS 3 Xrotation Yrotation Zrotation
			JOINT Spine1
			{
				OFFSET -0.232667 10.192268 -1.242267
				CHANNELS 3 Xrotation Yrotation Zrotation
				JOINT Spine1_split
				{
					OFFSET -0.232667 10.192268 -1.242267
					CHANNELS 3 Xrotation Yrotation Zrotation
					JOINT Spine2
					{
						OFFSET -0.232667 10.192268 -1.242267
						CHANNELS 3 Xrotation Yrotation Zrotation
						JOINT Neck_virtual
						{
							OFFSET 0.000000 0.000000 0.000000
							CHANNELS 3 Xrotation Yrotation Zrotation
							JOINT Neck
							{
								OFFSET -0.418800 17.814194 8.416900
								CHANNELS 3 Xrotation Yrotation Zrotation
								JOINT Head
								{
									OFFSET 0.000000 7.031097 3.806800
									CHANNELS 3 Xrotation Yrotation Zrotation
									JOINT HeadTop_End
									{
										OFFSET 0.000000 24.646606 12.978600
										CHANNELS 3 Xrotation Yrotation Zrotation
										End Site
										{
											OFFSET 0 0 0
										}
									}
								}
							}
						}
						JOINT LeftShoulder_virtual
						{
							OFFSET 0.000000 0.000000 0.000000
							CHANNELS 3 Xrotation Yrotation Zrotation
							JOINT LeftShoulder
							{
								OFFSET 8.476499 7.247704 -3.868750
								CHANNELS 3 Xrotation Yrotation Zrotation
								JOINT LeftShoulder_split
								{
									OFFSET 8.476499 7.247704 -3.868750
									CHANNELS 3 Xrotation Yrotation Zrotation
									JOINT LeftArm
									{
										OFFSET 9.308998 -2.777710 0.208600
										CHANNELS 3 Xrotation Yrotation Zrotation
										JOINT LeftForeArm
										{
											OFFSET 29.972298 0.000000 0.000000
											CHANNELS 3 Xrotation Yrotation Zrotation
											JOINT LeftHand
											{
												OFFSET 26.026505 0.000000 0.000000
												CHANNELS 3 Xrotation Yrotation Zrotation
												End Site
												{
													OFFSET 0 0 0
												}
											}
										}
									}
								}
							}
						}
						JOINT RightShoulder_virtual
						{
							OFFSET 0.000000 0.000000 0.000000
							CHANNELS 3 Xrotation Yrotation Zrotation
							JOINT RightShoulder
							{
								OFFSET -7.570500 7.247704 -3.868750
								CHANNELS 3 Xrotation Yrotation Zrotation
								JOINT RightShoulder_split
								{
									OFFSET -7.570500 7.247704 -3.868750
									CHANNELS 3 Xrotation Yrotation Zrotation
									JOINT RightArm
									{
										OFFSET -9.308998 -2.777710 0.208500
										CHANNELS 3 Xrotation Yrotation Zrotation
										JOINT RightForeArm
										{
											OFFSET -29.972300 0.000000 0.000000
											CHANNELS 3 Xrotation Yrotation Zrotation
											JOINT RightHand
											{
												OFFSET -26.026505 0.000000 0.000000
												CHANNELS 3 Xrotation Yrotation Zrotation
												End Site
												{
													OFFSET 0 0 0
												}
											}
										}
									}
								}
							}
						}
					}
				}
			}
		}
	}
}
MOTION
Frames: 10
Frame Time: 0.03333333
1.928606 91.411522 -1.060158 0.000000 0.000000 0.000000 3.041189 -31.890676 1.310000 -13.017345 15.708506 14.372195 16.100919 11.409099 -3.581880 -7.403342 -5.548005 -6.369069 3.559243 -0.309690 -0.816131 0.000000 0.000000 0.000000 4.448476 -31.946591 1.417379 -2.089526 2.122231 -11.869710 7.335225 9.500994 5.320992 -5.899555 -1.449772 4.738144 -3.867029 0.361601 0.193042 0.000000 0.000000 0.000000 4.093401 -29.721749 0.929547 8.626835 1.867269 -0.243296 0.771266 -0.747372 2.103941 0.048443 -0.649742 1.032573 0.000000 0.000000 0.000000 1.890375 -0.217916 2.233850 -4.670126 21.377821 -6.122279 -5.739848 12.470202 0.177455 0.000000 0.000000 0.000000 1.465010 -0.578208 2.663727 0.801899 -10.689893 -1.339173 2.259468 -0.439125 1.033887 -60.389077 0.426879 -37.041697 6.627958 -59.674789 9.106181 0.000000 0.000000 0.000000 0.397873 -0.588360 2.850870 4.010987 7.408056 7.191748 -2.574191 -3.209989 -1.793637 -1.520815 3.316700 65.146713 13.154838 24.691646 -4.337637 0.000000 0.000000 0.000000 
1.996983 91.288589 -1.183620 0.000000 0.000000 0.000000 2.979470 -32.373358 1.606646 -12.994739 16.099591 14.222176 16.229711 11.247549 -3.480994 -7.464618 -5.787417 -6.267086 3.313645 -0.280950 -0.828159 0.000000 0.000000 0.000000 4.546314 -32.115420 1.667356 -2.360620 1.406012 -12.062506 7.274867 9.295255 5.372537 -5.613956 -1.301242 5.504390 -4.781664 0.292187 0.223157 0.000000 0.000000 0.000000 3.836871 -29.755606 0.972919 8.671149 1.812238 -0.405049 0.715016 -0.783721 2.145382 0.218130 -0.795131 1.250975 0.000000 0.000000 0.000000 1.904496 -0.268202 2.314578 -4.318985 21.783589 -6.144135 -5.767615 12.947944 -0.033499 0.000000 0.000000 0.000000 1.315231 -0.607955 2.686649 0.754355 -10.089689 -1.593145 2.164071 -0.674999 1.019422 -60.256161 0.699642 -36.698070 6.571466 -59.726637 8.886072 0.000000 0.000000 0.000000 0.344647 -0.642477 2.923530 3.918935 7.429484 7.489641 -2.507998 -3.602064 -1.746861 -0.829560 3.256304 64.740310 13.215457 24.573938 -4.374645 0.000000 0.000000 0.000000 
2.104342 91.119659 -1.374249 0.000000 0.000000 0.000000 3.230714 -32.284689 2.000650 -13.121754 16.227051 13.896804 16.466124 11.012724 -3.289502 -7.375371 -6.329068 -6.095371 3.094039 -0.225170 -0.811735 0.000000 0.000000 0.000000 4.650668 -31.970278 2.046283 -2.634606 0.546608 -12.406800 7.844005 8.940353 5.303837 -6.200681 -1.092137 6.290821 -4.530742 0.246693 0.263711 0.000000 0.000000 0.000000 3.797867 -29.556804 1.161340 8.516654 1.690812 -0.694340 0.653690 -0.799635 2.217006 0.451648 -0.966904 1.323933 0.000000 0.000000 0.000000 1.827783 -0.293992 2.443257 -4.083078 22.775701 -6.111415 -5.661974 14.523603 -0.395897 0.000000 0.000000 0.000000 1.207307 -0.614132 2.729897 0.717388 -8.959198 -1.712021 2.172429 -0.864047 0.973393 -59.907384 1.447977 -36.025392 6.120657 -60.038176 8.304842 0.000000 0.000000 0.000000 0.331639 -0.657613 3.014898 3.865247 7.546768 7.812771 -2.460451 -3.599033 -1.665499 0.131093 2.930508 64.197754 13.255458 24.595086 -4.379773 0.000000 0.000000 0.000000 
2.228076 90.953018 -1.528225 0.000000 0.000000 0.000000 3.709692 -31.646428 2.347886 -13.440221 16.064665 13.535898 16.698802 10.814595 -3.075151 -7.128023 -7.088968 -5.864105 2.974855 -0.138787 -0.782008 0.000000 0.000000 0.000000 4.824026 -31.413935 2.407581 -2.872463 -0.227640 -12.761950 8.726058 8.449452 5.097078 -7.560920 -0.811708 7.184776 -3.275727 0.250096 0.194644 0.000000 0.000000 0.000000 3.970727 -29.159085 1.367256 8.218656 1.560236 -0.999780 0.587443 -0.755602 2.283268 0.409637 -1.095874 1.219443 0.000000 0.000000 0.000000 1.649003 -0.260844 2.566240 -3.987338 24.260357 -6.079669 -5.438266 16.941156 -0.886676 0.000000 0.000000 0.000000 1.173018 -0.562817 2.758132 0.695921 -7.397565 -1.685867 2.290326 -0.881217 1.070459 -59.372915 2.640742 -34.961747 5.310338 -60.461763 7.418960 0.000000 0.000000 0.000000 0.353651 -0.593203 3.077197 3.834984 7.784936 8.101567 -2.302426 -3.165790 -1.587143 1.102384 2.493268 63.662800 13.284841 24.691436 -4.351134 0.000000 0.000000 0.000000 
2.381730 90.803619 -1.560284 0.000000 0.000000 0.000000 4.313996 -30.617464 2.552536 -14.043815 15.634064 13.215364 16.980322 10.671489 -2.862763 -6.758724 -7.951453 -5.566543 3.007410 -0.029302 -0.767597 0.000000 0.000000 0.000000 5.130932 -30.538548 2.634032 -3.124593 -0.821480 -13.013672 9.779945 7.948196 4.709821 -9.161077 -0.495347 8.691948 -2.426763 0.312153 -0.080666 0.000000 0.000000 0.000000 4.327023 -28.614982 1.527381 7.806055 1.499596 -1.208349 0.520397 -0.626460 2.310649 0.329119 -1.194718 1.067219 0.000000 0.000000 0.000000 1.415373 -0.129812 2.622903 -3.990109 26.173509 -6.122851 -5.180839 19.938015 -1.488224 0.000000 0.000000 0.000000 1.214088 -0.408631 2.735800 0.690022 -5.548171 -1.550256 2.428995 -0.787796 1.256026 -58.703270 4.200460 -33.556398 4.360244 -60.913519 6.410354 0.000000 0.000000 0.000000 0.417409 -0.416267 3.062510 3.805145 8.093000 8.345024 -2.092702 -2.483276 -1.590457 1.891574 2.053637 63.219329 13.300557 24.736543 -4.294925 0.000000 0.000000 0.000000 
2.587423 90.663452 -1.421947 0.000000 0.000000 0.000000 4.789530 -29.372037 2.513024 -14.790375 15.106558 12.957087 17.411609 10.589890 -2.700658 -6.359014 -8.804244 -5.191966 3.181848 0.087552 -0.782263 0.000000 0.000000 0.000000 5.457261 -29.300832 2.632885 -3.444358 -1.218664 -13.045389 10.968664 7.494673 4.100978 -10.588418 -0.254124 10.816231 -2.742591 0.424636 -0.527916 0.000000 0.000000 0.000000 4.675136 -27.874186 1.555519 7.367929 1.557839 -1.249327 0.473994 -0.379282 2.272899 0.381879 -1.205618 0.972388 0.000000 0.000000 0.000000 1.185258 0.125929 2.581141 -4.007633 28.381642 -6.322503 -4.978066 23.213559 -2.192373 0.000000 0.000000 0.000000 1.323559 -0.129211 2.641227 0.699230 -3.562809 -1.391527 2.509197 -0.877196 1.296963 -58.019814 5.897413 -31.958933 3.494691 -61.476115 5.484104 0.000000 0.000000 0.000000 0.520494 -0.109209 2.945429 3.754704 8.420239 8.564131 -1.835804 -1.872894 -1.605562 2.400071 1.593878 62.910550 13.280341 24.480110 -4.215868 0.000000 0.000000 0.000000 
2.876401 90.507278 -1.137005 0.000000 0.000000 0.000000 5.037240 -27.988375 2.318988 -15.546340 14.690733 12.663735 18.168100 10.607272 -2.639540 -6.047210 -9.584901 -4.663249 3.394486 0.187496 -0.818504 0.000000 0.000000 0.000000 5.759788 -27.640913 2.426757 -4.002056 -1.531427 -12.898317 12.651014 6.987009 3.284109 -11.773749 -0.342588 12.727522 -3.814650 0.569630 -0.906436 0.000000 0.000000 0.000000 4.902845 -26.970450 1.482366 6.970972 1.746128 -1.089611 0.452305 -0.012863 2.165459 0.514974 -1.009683 0.980817 0.000000 0.000000 0.000000 1.018621 0.493418 2.435462 -3.892732 30.783861 -6.736236 -4.869086 26.566398 -2.970551 0.000000 0.000000 0.000000 1.455915 0.267734 2.468259 0.713092 -1.536250 -1.333153 2.629827 -1.216863 1.285077 -57.393642 7.477083 -30.346367 2.907050 -62.336247 4.800405 0.000000 0.000000 0.000000 0.657546 0.308997 2.733271 3.699847 8.712083 8.778122 -1.519411 -1.421060 -1.610597 2.632613 1.070225 62.765955 13.205833 23.796196 -4.123004 0.000000 0.000000 0.000000 
3.271458 90.239876 -0.737648 0.000000 0.000000 0.000000 5.138293 -26.524917 2.162037 -16.317803 14.558511 12.217311 19.370258 10.647831 -2.711571 -5.926632 -10.299706 -4.041455 3.391724 0.255605 -0.805255 0.000000 0.000000 0.000000 5.887434 -25.855801 2.181477 -5.190471 -1.919293 -12.764872 15.365747 6.265080 2.347211 -12.723638 -0.913167 13.631433 -5.290118 0.669940 -0.909445 0.000000 0.000000 0.000000 4.960971 -25.875384 1.429629 6.665988 2.041462 -0.798577 0.451307 0.433478 2.008323 0.664432 -0.830929 1.059593 0.000000 0.000000 0.000000 0.977742 0.946889 2.218870 -3.540391 33.266986 -7.418416 -4.842462 29.800361 -3.811291 0.000000 0.000000 0.000000 1.552831 0.756118 2.249265 0.724024 0.478014 -1.460572 2.769861 -1.687564 1.241042 -56.962135 8.857448 -28.747959 2.604277 -63.576473 4.380128 0.000000 0.000000 0.000000 0.790767 0.779112 2.455384 3.655769 8.893828 8.969441 -1.116843 -1.163151 -1.655112 2.628218 0.432995 62.778297 13.070014 22.772780 -4.043385 0.000000 0.000000 0.000000 
3.762212 89.868675 -0.239750 0.000000 0.000000 0.000000 4.978329 -24.817456 2.144540 -17.056695 14.819579 11.562112 20.963669 10.660539 -2.953107 -6.036183 -10.990341 -3.437483 3.120900 0.283473 -0.671861 0.000000 0.000000 0.000000 5.618897 -24.032890 2.012934 -7.273986 -2.346055 -13.007137 19.760279 5.307315 1.440638 -13.247214 -1.913176 12.887133 -6.878241 0.660490 -0.337038 0.000000 0.000000 0.000000 4.814130 -24.354228 1.459904 6.554508 2.372194 -0.508659 0.470480 0.918105 1.839286 0.737253 -0.751792 1.021646 0.000000 0.000000 0.000000 1.033955 1.437803 1.979488 -2.948670 35.642393 -8.345019 -4.848922 32.684204 -4.697305 0.000000 0.000000 0.000000 1.587141 1.276055 2.030594 0.739472 2.496376 -1.800852 2.890070 -2.099919 1.203820 -56.808507 10.126234 -27.053008 2.529348 -65.181349 4.173363 0.000000 0.000000 0.000000 0.891924 1.251918 2.159216 3.636329 8.957376 9.090102 -0.672412 -1.125702 -1.695689 2.492941 -0.262456 62.918999 12.863699 21.642008 -4.015992 0.000000 0.000000 0.000000 
4.349489 89.402283 0.303093 0.000000 0.000000 0.000000 4.583288 -22.709734 2.332081 -17.868711 15.269159 10.596963 22.880789 10.549630 -3.337143 -6.288500 -11.636524 -2.953226 2.669935 0.281199 -0.416507 0.000000 0.000000 0.000000 5.124625 -22.116033 2.074686 -10.396126 -2.715456 -13.949079 25.862170 4.379627 0.687707 -12.871370 -3.159133 10.871095 -9.053277 0.476102 0.796203 0.000000 0.000000 0.000000 4.501807 -22.332762 1.626734 6.640715 2.660589 -0.325377 0.510372 1.380340 1.704194 0.675711 -0.758474 0.873080 0.000000 0.000000 0.000000 1.128701 1.899431 1.774486 -2.223842 37.715424 -9.391852 -4.761864 35.059518 -5.607423 0.000000 0.000000 0.000000 1.584592 1.775386 1.855641 0.765809 4.535804 -2.303736 3.046506 -2.376798 1.209588 -56.890555 11.483075 -25.153881 2.589702 -67.111854 4.087083 0.000000 0.000000 0.000000 0.982894 1.690985 1.902968 3.662213 8.913757 9.107927 -0.359860 -1.123455 -1.679763 2.391536 -0.783541 63.103694 12.622552 20.771534 -4.078191 0.000000 0.000000 0.000000 
